# xmcd CD database file
#
# Track frame offsets:
#	183
#	14658
#	29058
#	47208
#	55833
#	67833
#	80283
#	92658
#	107733
#	122808
#	132558
#	142233
#	160458
#	169608
#	183258
#	196833
#	206508
#	216108
#	230808
#	245508
#	250083
#	254733
#	259383
#	264108
#	268833
#	273558
#	278283
#	283008
#	287733
#	292458
#	297183
#	301833
#	306483
#	308883
#	311358
#	313833
#	316233
#	318633
#	321033
#	323508
#	325908
#	328383
#	330858
#	333258
#	335658
#
# Disc length: 4505 seconds
#
# Revision: 0
# Processed by: cddbd v1.5.1PL0 Copyright (c) Steve Scherf et al.
# Submitted via: CDex 1.51
#
DISCID=c811972d
DTITLE=Sonoton Authentic Series - SAS 040 - Authentic West Indies 1
DYEAR=1993
DGENRE=Contentum
TTITLE0=Tu Y Yo Las Doce - Up-tempo salsa
TTITLE1=Tu Y Yo Las Doce - Salsa rhythm underscore
TTITLE2=Danza Negra - Black dance salsa
TTITLE3=Danza Negra - Black dance salsa underscore
TTITLE4=Esperando - Romantic Bachata
TTITLE5=Temanduma - Salsa
TTITLE6=Temanduma - Salsa rhythm underscore
TTITLE7=Sonando - Romantic bolero
TTITLE8=Sonando - Bolero rhythm underscore
TTITLE9=Gozando - Aggressive salsa
TTITLE10=Gozando - Salsa rhythm underscore
TTITLE11=Baquine - Afro rhythm
TTITLE12=Baquine - Percussion rhythm underscore
TTITLE13=Cibao - Medium tempo merengue
TTITLE14=Cibao - Merengue rhythm underscore
TTITLE15=Azua - Slow tempo merengue (apambiche)
TTITLE16=Azua - Merengue rhythm underscore
TTITLE17=Felicidad - Salsa happy tune
TTITLE18=Felicidad - Salsa rhythm underscore
TTITLE19=59 second versions - Tu Y a Las Doce
TTITLE20=59 second versions - Danza negra
TTITLE21=59 second versions - Danza negra 2
TTITLE22=59 second versions - Esperando
TTITLE23=59 second versions - Tembanduma
TTITLE24=59 second versions - Tembanduma 2
TTITLE25=59 second versions - Sonando
TTITLE26=59 second versions - Gozando
TTITLE27=59 second versions - Baquine
TTITLE28=59 second versions - Baquine 2
TTITLE29=59 second versions - Cibao
TTITLE30=59 second versions - Azua
TTITLE31=59 second versions - Felicidad
TTITLE32=29 second versions - Tu Y a Las Doce
TTITLE33=29 second versions - Danza negra
TTITLE34=29 second versions - Danza negra 2
TTITLE35=29 second versions - Esperando
TTITLE36=29 second versions - Tembanduma
TTITLE37=29 second versions - Tembanduma 2
TTITLE38=29 second versions - Sonando
TTITLE39=29 second versions - Gozando
TTITLE40=29 second versions - Baquine
TTITLE41=29 second versions - Baquine 2
TTITLE42=29 second versions - Cibao
TTITLE43=29 second versions - Azua
TTITLE44=29 second versions - Felicidad
EXTD=YEAR: 1993
EXTT0=
EXTT1=
EXTT2=
EXTT3=
EXTT4=
EXTT5=
EXTT6=
EXTT7=
EXTT8=
EXTT9=
EXTT10=
EXTT11=
EXTT12=
EXTT13=
EXTT14=
EXTT15=
EXTT16=
EXTT17=
EXTT18=
EXTT19=
EXTT20=
EXTT21=
EXTT22=
EXTT23=
EXTT24=
EXTT25=
EXTT26=
EXTT27=
EXTT28=
EXTT29=
EXTT30=
EXTT31=
EXTT32=
EXTT33=
EXTT34=
EXTT35=
EXTT36=
EXTT37=
EXTT38=
EXTT39=
EXTT40=
EXTT41=
EXTT42=
EXTT43=
EXTT44=
PLAYORDER=
